<?xml version="1.0"?>
<svg width="21" height="18" xmlns="http://www.w3.org/2000/svg" xmlns:svg="http://www.w3.org/2000/svg">
 <g class="layer">
  <title>Layer 1</title>
  <path d="m20.67,2.8a8.19,8.19 0 0 1 -2.36,0.64a4.11,4.11 0 0 0 1.8,-2.27a8.22,8.22 0 0 1 -2.6,1a4.1,4.1 0 0 0 -3,-1.3c-2.65,0 -4.59,2.48 -3.99,5.04a11.65,11.65 0 0 1 -8.46,-4.29a4.11,4.11 0 0 0 1.27,5.48a4.09,4.09 0 0 1 -1.86,-0.51c-0.04,1.9 1.32,3.68 3.29,4.07a4.11,4.11 0 0 1 -1.85,0.07a4.11,4.11 0 0 0 3.83,2.85a8.25,8.25 0 0 1 -6.07,1.7a11.62,11.62 0 0 0 6.29,1.85c7.61,0 11.92,-6.44 11.66,-12.21a8.35,8.35 0 0 0 2.05,-2.12z" fill="#05d331" id="svg_1"/>
 </g>
</svg>