<?xml version="1.0"?>
<svg width="21" height="20" xmlns="http://www.w3.org/2000/svg" xmlns:svg="http://www.w3.org/2000/svg">
 <g class="layer">
  <title>Layer 1</title>
  <path d="m10.33,1.8c2.67,0 2.99,0.01 4.05,0.06c2.71,0.12 3.97,1.41 4.1,4.1c0.04,1.05 0.05,1.37 0.05,4.04c0,2.67 -0.01,2.99 -0.06,4.04c-0.12,2.69 -1.38,3.98 -4.09,4.1c-1.06,0.05 -1.38,0.06 -4.05,0.06c-2.67,0 -2.98,-0.01 -4.04,-0.06c-2.71,-0.12 -3.97,-1.42 -4.1,-4.1c-0.04,-1.05 -0.05,-1.37 -0.05,-4.04c0,-2.67 0.01,-2.99 0.05,-4.04c0.13,-2.69 1.39,-3.98 4.1,-4.1c1.06,-0.05 1.37,-0.06 4.04,-0.06zm0,-1.8c-2.71,0 -3.05,0.01 -4.12,0.06c-3.63,0.17 -5.65,2.18 -5.82,5.82c-0.05,1.06 -0.06,1.4 -0.06,4.12s0.01,3.06 0.06,4.12c0.17,3.64 2.19,5.65 5.82,5.82c1.07,0.05 1.41,0.06 4.12,0.06c2.72,0 3.06,-0.01 4.13,-0.06c3.63,-0.17 5.65,-2.18 5.81,-5.82c0.05,-1.06 0.06,-1.4 0.06,-4.12s-0.01,-3.06 -0.06,-4.12c-0.16,-3.63 -2.18,-5.65 -5.81,-5.82c-1.07,-0.05 -1.41,-0.06 -4.13,-0.06zm0,4.87a5.13,5.13 0 1 0 0,10.26a5.13,5.13 0 0 0 0,-10.26zm0,8.46a3.33,3.33 0 1 1 0,-6.66a3.33,3.33 0 0 1 0,6.66zm5.34,-9.87a1.2,1.2 0 1 0 0,2.4a1.2,1.2 0 0 0 0,-2.4z" fill="#05d331" id="svg_1"/>
 </g>
</svg>