<?xml version="1.0"?>
<svg width="20" height="20" xmlns="http://www.w3.org/2000/svg" xmlns:svg="http://www.w3.org/2000/svg">
 <g class="layer">
  <title>Layer 1</title>
  <path d="m18.9,0l-17.8,0c-0.61,0 -1.1,0.49 -1.1,1.1l0,17.8c0,0.61 0.49,1.1 1.1,1.1l9.58,0l0,-7.75l-2.6,0l0,-3.01l2.6,0l0,-2.23c0,-2.58 1.58,-3.99 3.89,-3.99c1.1,0 2.05,0.08 2.32,0.12l0,2.7l-1.59,0c-1.26,0 -1.5,0.6 -1.5,1.47l0,1.93l2.99,0l-0.39,3.01l-2.6,0l0,7.75l5.1,0c0.61,0 1.1,-0.49 1.1,-1.1l0,-17.8c0,-0.61 -0.49,-1.1 -1.1,-1.1z" fill="#05d331" id="svg_1"/>
 </g>
</svg>