<?xml version="1.0"?>
<svg width="20" height="20" xmlns="http://www.w3.org/2000/svg" xmlns:svg="http://www.w3.org/2000/svg">
 <g class="layer">
  <title>Layer 1</title>
  <path d="m10,0c-5.52,0 -10,4.48 -10,10c0,4.24 2.64,7.86 6.36,9.31c-0.09,-0.79 -0.17,-2 0.03,-2.87c0.18,-0.78 1.17,-4.97 1.17,-4.97s-0.3,-0.6 -0.3,-1.48c0,-1.39 0.81,-2.43 1.81,-2.43c0.86,0 1.27,0.64 1.27,1.41c0,0.86 -0.55,2.14 -0.83,3.33c-0.24,0.99 0.5,1.8 1.48,1.8c1.78,0 3.14,-1.87 3.14,-4.58c0,-2.39 -1.72,-4.06 -4.17,-4.06c-2.85,0 -4.52,2.13 -4.52,4.34c0,0.86 0.33,1.78 0.75,2.28a0.3,0.3 0 0 1 0.07,0.29l-0.28,1.13c-0.05,0.18 -0.15,0.22 -0.34,0.13c-1.25,-0.58 -2.03,-2.4 -2.03,-3.87c0,-3.16 2.3,-6.05 6.61,-6.05c3.47,0 6.17,2.47 6.17,5.77c0,3.45 -2.18,6.22 -5.19,6.22c-1.02,0 -1.97,-0.52 -2.29,-1.15l-0.63,2.38c-0.22,0.87 -0.83,1.96 -1.24,2.62c0.94,0.29 1.93,0.45 2.96,0.45c5.52,0 10,-4.48 10,-10s-4.48,-10 -10,-10z" fill="#05d331" id="svg_1"/>
 </g>
</svg>