<?xml version="1.0"?>
<svg width="21" height="20" xmlns="http://www.w3.org/2000/svg" xmlns:svg="http://www.w3.org/2000/svg">
 <g class="layer">
  <title>Layer 1</title>
  <path d="m10.33,0c-5.52,0 -10,4.48 -10,10c0,5.52 4.48,10 10,10c5.53,0 10,-4.48 10,-10c0,-5.52 -4.47,-10 -10,-10zm3.7,14.08c-1.75,0.12 -5.65,0.12 -7.4,0c-1.89,-0.13 -2.12,-1.06 -2.13,-4.08c0.01,-3.02 0.24,-3.95 2.13,-4.08c1.75,-0.12 5.65,-0.12 7.4,0c1.9,0.13 2.12,1.06 2.14,4.08c-0.02,3.02 -0.24,3.95 -2.14,4.08zm-5.36,-6.03l4.09,1.95l-4.09,1.95l0,-3.9z" fill="#05d331" id="svg_1"/>
 </g>
</svg>